<?xml version="1.0" encoding="UTF-8"?>
<svg width="100px" height="100px" viewBox="0 0 100 100" version="1.1" xmlns="http://www.w3.org/2000/svg" xmlns:xlink="http://www.w3.org/1999/xlink">
    <title>assets/brands/lamborghini</title>
    <g id="assets/brands/lamborghini" stroke="none" stroke-width="1" fill="none" fill-rule="evenodd">
        <g id="lamborghini-logo-1" transform="translate(0.000000, 38.000000)" fill="#FFFFFF" fill-rule="nonzero">
            <path d="M21.3598794,0.000289833131 C18.8921123,-0.0217927532 16.5614095,1.22534035 16.5614095,1.22534035 C16.5614095,1.22534035 14.2133453,2.6474589 13.3556272,4.77835234 C13.3113097,4.98531947 8.65949866,14.0073505 8.65949866,14.0073505 C2.76299124,12.3022702 -0.0877945094,15.7572051 0.00205877284,17.0906887 C1.42661403,20.6644126 8.3926801,18.1221739 9.08820543,17.2947623 C9.4732039,17.088252 9.72129033,17.335577 9.72129033,17.335577 C9.72129033,17.335577 11.4272843,18.4713834 11.6200882,18.5607798 C11.8127397,18.6501762 12.7840689,18.5199651 12.7840689,18.5199651 C13.5394457,18.4625503 14.8872449,16.9822556 15.0505037,16.9680923 C15.3023975,16.9688537 15.6062234,18.6079908 16.6431912,18.5811871 C17.8874307,18.8216589 19.236296,17.4173587 19.236296,17.4173587 C19.4138705,17.1660741 19.4813366,17.3559843 19.4813366,17.3559843 C19.4527054,18.8962828 20.7036458,18.6245908 21.0738718,18.5811871 C22.3031865,18.0809023 25.3141853,15.1143734 24.9739611,15.9880823 C24.8556289,16.2247467 23.9325768,17.9481022 23.9325768,17.9481022 C23.8291694,18.4072677 24.15721,18.3769613 24.15721,18.3769613 L26.3214558,18.3565539 C26.6915295,18.1352712 28.5851493,14.0574551 28.3634097,14.620028 C29.0458378,13.3849261 30.5890298,12.9457111 30.5890298,12.9457111 C30.7372116,12.9015459 30.6706592,13.1089699 30.6706592,13.1089699 L28.1387765,18.1319207 C28.0946113,18.2648731 28.34285,18.3973686 28.34285,18.3973686 L30.5480628,18.3565539 C30.8444263,18.3279227 32.6920535,14.5382463 32.6920535,14.5382463 C33.1949273,13.5766639 34.979048,13.0273405 34.979048,13.0273405 C35.3046519,12.9688597 35.0810847,13.2927884 35.0810847,13.2927884 L33.3455458,16.9272776 C33.0817731,18.5773798 34.4682549,18.6740863 35.0606774,18.6015945 C35.6530999,18.5144825 36.6165098,18.180807 38.511348,16.7638664 C38.8966511,16.4690258 38.9810218,16.7656939 38.9810218,16.8252408 C38.9973172,18.854402 41.2270493,18.6220018 41.2270493,18.6220018 C41.8936388,18.7867836 44.5994409,18.7229726 46.8625253,14.2115763 C46.0351136,17.2752687 47.7220709,18.1095335 47.7814655,18.2137024 C47.84086,18.3172622 48.747769,18.634033 49.0881454,18.5607798 C52.5397298,18.8667378 53.988652,13.4970143 53.988652,13.4970143 C54.7653499,12.9143386 54.9625702,12.7471201 55.2750769,12.5780741 C56.0455307,12.6539164 56.2523456,12.6756944 56.6227238,12.7210779 C56.9187828,12.8257037 56.6504413,13.1021167 56.5613495,13.1905994 C53.0380348,15.9361502 54.5845773,18.0533372 54.7033664,18.0094766 C56.2451878,20.1021443 59.4457921,16.4542533 60.0529871,16.3963817 C60.8254208,19.47972 63.1753125,18.1374033 63.2791768,18.1523281 C63.0720574,18.7590662 62.4694312,20.2594637 61.9519372,21.235514 C60.8715657,22.758451 59.1750139,21.0518478 59.1750139,21.0518478 L58.7461549,21.0314405 C58.5390355,21.2973452 58.6645255,21.603151 58.6645255,21.603151 C59.1092231,22.3154286 59.6786492,23.3010734 61.4414488,23.5429158 C63.2188685,23.6219563 64.2387794,21.6643731 64.2387794,21.6643731 C64.2387794,21.6643731 66.7306089,17.0666263 66.8932586,16.5188259 C67.6481785,15.839596 68.9583611,14.8588245 69.9356298,14.1503543 C70.5722175,14.0189248 68.3421808,17.6549369 68.1796835,18.1727354 C68.135366,18.469099 68.2409055,18.4791504 68.2409055,18.4791504 C68.2409055,18.4791504 69.9365436,18.5633688 70.2622998,18.5199651 C70.588056,18.4764091 72.1705398,14.7168868 72.7329605,14.0075028 C73.2212141,13.1941021 74.7951694,12.4352226 74.7951694,12.4352226 C75.1358504,12.3621217 75.0198026,12.7618926 75.0198026,12.7618926 L72.9371863,16.9682446 C72.4347694,18.7290643 73.849121,18.7382019 74.1010148,18.7241909 C74.7822245,18.6812441 77.3270522,17.2131328 77.3270522,17.2131328 C77.6823534,16.9473803 77.6742818,17.376544 77.6742818,17.376544 C77.6448891,17.9394215 78.2528456,18.8615598 78.7563285,18.744446 C80.5635979,18.9122736 83.2968129,15.9102602 83.3709799,16.1921559 C83.386057,16.2515504 82.350003,18.2953319 82.350003,18.2953319 C82.394625,18.4582861 82.5746362,18.5403724 82.5746362,18.5403724 C82.5746362,18.5403724 84.3244908,18.5595614 84.7390342,18.5607798 C85.1537299,18.5619981 87.040192,14.0539524 87.4547354,13.8031246 C88.2984425,12.9317001 89.2217992,12.8490046 89.2514965,12.8639294 C89.5626325,12.850223 87.4909813,16.1591081 87.373106,16.8250885 C86.9153112,18.7348515 88.2714865,18.7036313 88.2714865,18.7036313 C89.3527718,18.8697837 92.0042051,16.9888042 92.0488272,17.1517585 C92.3595063,16.8418408 92.3960568,17.2131328 92.3960568,17.2131328 L92.3960568,17.3559843 C92.5751542,18.8971966 93.4782558,18.7240386 93.4782558,18.7240386 C94.5152236,18.9935985 98.5624286,15.600038 98.5624286,15.600038 L97.9499034,14.9262907 L95.4180207,16.7638664 C95.2107489,16.8672738 95.0911984,16.6414223 95.0911984,16.6414223 L97.929496,11.1692051 C98.0626007,11.036405 97.8681217,10.8833498 97.8681217,10.8833498 L95.3159839,10.8833498 C95.1382571,11.0752399 95.0301286,11.2100198 95.0301286,11.2100198 L92.7228791,15.7022271 L90.1909963,16.9476849 C89.9244824,17.0207859 89.9867705,16.7436114 89.9867705,16.7436114 C89.9867705,16.7436114 92.0961905,12.603964 92.2736127,12.0267709 C92.3919449,11.7605615 92.3348347,11.3326162 92.3348347,11.3326162 C91.6374819,9.71586634 88.8202007,11.8088386 88.4348977,11.8226974 C88.4199729,11.8374699 88.7821273,11.0875757 88.7821273,11.0875757 C88.885687,10.8655315 88.6800905,10.8629425 88.6800905,10.8629425 L86.3114666,10.8425351 C86.3114666,10.8425351 86.3184722,10.6742506 86.2296849,10.8221278 C86.1408977,10.970005 84.6167424,13.8236843 84.6167424,13.8236843 L80.7984347,16.7026444 C80.4725262,16.7612774 80.5533942,16.5393855 80.5533942,16.5393855 L83.3507248,11.1283904 L83.3711322,10.9037572 L80.6758383,10.8425351 L78.4502182,15.1303642 C78.331886,15.2634689 76.0001172,16.5802002 76.0001172,16.5802002 C75.6445114,16.6831508 75.6324802,16.3759744 75.6324802,16.3759744 L77.6948415,12.3740006 C78.1619262,10.8126856 76.4562368,10.3536724 75.6120728,10.6587166 C75.0414284,10.8643131 74.5094665,11.046761 74.5094665,11.046761 C74.5094665,11.046761 74.3408773,11.0906216 74.4890591,10.8833498 C74.7403437,10.5285055 77.3476118,5.37031794 77.3476118,5.37031794 C77.4070064,5.22213617 77.2659824,5.12527738 77.2659824,5.12527738 L74.8975108,5.10487003 C74.7048593,5.19289578 74.6728776,5.32950323 74.6728776,5.32950323 L71.3036841,11.7205083 L68.5267608,13.8032769 C68.3490341,13.9213045 68.3429423,13.7214952 68.3429423,13.7214952 L69.731404,11.0875757 L69.731404,10.8219755 L67.2403359,10.8015681 L66.8318842,11.1282381 C66.5501409,10.5349019 65.1205599,10.5419074 65.0759379,10.5565276 C62.0838236,10.4590596 60.4000645,14.7015052 60.4000645,14.7015052 C58.7351897,16.1447925 57.9659543,16.5939067 57.4190676,16.6820847 C56.964014,16.7076701 56.8267974,16.3348551 56.8267974,16.3348551 C56.192951,14.3928058 60.1754312,12.5575145 60.1754312,12.5575145 C60.3088405,12.483652 60.8826832,10.7609057 60.8085162,10.7607534 C60.7343491,10.7606011 55.9116646,10.7551185 55.8671948,10.7403461 C55.6003762,10.6360249 54.3122761,11.8482827 53.92743,12.1288077 C52.7993905,8.82251151 48.4287137,11.323174 47.8222802,12.802555 C47.5618579,12.872001 47.4450487,12.8235716 47.3117917,12.8229624 C47.3556523,11.6975119 47.2062522,10.9957426 46.4950406,10.638157 C46.1097375,10.4298192 44.5350207,10.638157 44.5350207,10.638157 L47.2097549,5.30894358 C47.3428596,5.14629391 47.0871585,4.9822736 47.0871585,4.9822736 L44.6778722,4.9822736 C44.5741602,5.04136355 44.453239,5.18634716 44.453239,5.18634716 C44.453239,5.18634716 39.9007234,14.0038477 39.6343618,14.4770242 C39.3681524,14.9502008 36.0406873,16.7230517 36.0406873,16.7230517 C36.0699277,16.3974478 38.213157,12.670821 38.2868671,11.9451415 C38.3741314,10.0643143 36.2245058,10.6587166 36.2245058,10.6587166 C36.2245058,10.6587166 35.0072223,11.466787 33.8968489,12.0267709 C33.6582047,9.96699865 31.854895,10.679124 31.854895,10.679124 L29.8130934,12.0063636 L30.1805781,11.046761 L30.2623598,10.679124 L27.8119542,10.6179019 C27.5309723,10.8245645 27.0361701,11.9451415 27.0361701,11.9451415 L26.2602337,13.3744179 L22.7687484,16.0084897 C22.4282197,16.1999229 22.6053372,15.7430418 22.6053372,15.7430418 C22.6053372,15.7430418 24.9626914,11.1194051 25.0146236,11.0874234 C25.2071228,10.9693958 25.0555906,10.6792763 25.0555906,10.6792763 L22.6869667,10.6587166 C22.6869667,10.6587166 22.2858251,11.3402309 22.1970378,11.4142457 C21.0700645,9.82582239 17.3512046,10.4704816 15.3567664,15.1713312 C15.1018267,15.4855131 14.9046064,15.7054252 14.7646485,15.7634491 C12.4261787,18.497121 11.0891923,15.7838565 11.0891923,15.7838565 L15.2751369,7.80016391 C15.2751369,7.80016391 17.1795696,3.5392908 18.3787302,2.32794672 C21.4137913,0.277616658 22.2786673,2.20550259 22.2786673,2.20550259 C22.540917,2.81315445 23.3406112,5.00679288 19.2158887,6.06462492 C18.6747892,6.11808 18.8482517,6.37073525 18.8482517,6.37073525 C20.0487829,7.39628102 21.5231382,7.28967543 21.5231382,7.28967543 C22.974954,7.57507382 26.9090049,5.41021889 25.4842973,1.94005467 C24.3725533,0.487172788 22.8404787,0.0135393849 21.3598794,0.000289833131 L21.3598794,0.000289833131 Z M83.6568352,5.41128495 C81.494417,5.49398043 81.3678609,8.39624144 83.5752058,8.69854443 C85.7228515,8.76403073 86.1309986,5.50722998 83.6568352,5.41113265 L83.6568352,5.41128495 Z M98.3786102,5.41128495 C96.0383129,5.41950881 96.2126892,8.72199766 98.4194249,8.69854443 C100.626465,8.52721402 100.437773,5.49093455 98.3786102,5.41113265 L98.3786102,5.41128495 Z M21.1148388,11.5979119 C21.8070137,11.6137504 21.6859402,12.4431419 21.5641052,12.5984815 C21.6382723,12.8503752 20.3593098,15.0077678 20.3593098,15.0077678 C18.8794719,16.8552426 18.1745044,16.5186736 18.1745044,16.5186736 C18.1745044,16.5186736 17.6673664,16.4483139 18.0520602,15.4570342 C18.4662991,14.7619658 19.2707144,12.9533258 20.1142692,11.9040222 C20.5585099,11.675734 20.8839616,11.5925816 21.1148388,11.5979119 L21.1148388,11.5979119 Z M44.3306425,11.8019854 C45.0566266,11.8930571 44.6982795,12.5575145 44.6982795,12.5575145 L42.6971403,16.4982662 C42.0608573,17.2818173 41.4720898,17.0087547 41.4720898,17.0087547 C41.1461813,16.7705673 41.696723,15.8653336 41.696723,15.8653336 L43.5752658,12.1900298 C43.9450349,11.8057928 44.3306425,11.8019854 44.3306425,11.8019854 L44.3306425,11.8019854 Z M65.1575673,11.8225451 C65.7240999,11.7220312 65.9540633,12.1900298 65.9540633,12.1900298 C65.9540633,12.1900298 65.9869588,12.2652629 65.9130963,12.6801109 C65.7507513,13.3166986 63.9937389,16.3554147 63.9937389,16.3554147 C63.2538961,17.0940392 62.6052772,16.9475326 62.6052772,16.9475326 C62.2350512,16.8427546 62.380644,16.2941927 62.380644,16.2941927 C62.380644,16.2941927 63.8033717,13.3767023 64.48382,12.1492151 C64.750334,11.95367 64.9687231,11.8558974 65.1575673,11.8225451 L65.1575673,11.8225451 Z M51.5383987,11.8429524 C51.8513623,11.7901065 52.1484873,11.9190993 52.0897019,12.5779218 C51.7202374,13.3619298 50.2621775,16.2421082 49.9662709,16.6411177 C49.9071809,16.981951 48.4182054,17.5372138 48.8022901,16.2941927 C48.8022901,16.2941927 50.8908459,12.3880116 50.9054661,12.2104371 C50.9127762,12.1214976 51.2255875,11.8956461 51.5383987,11.8429524 L51.5383987,11.8429524 Z M4.51452107,15.0488871 C5.73530735,15.0196467 6.84217796,15.4162195 6.84217796,15.4162195 C6.84217796,15.4162195 6.55662727,16.3680551 3.8610288,16.8046811 C2.58724431,16.7274682 1.92172085,16.7331031 1.92126396,16.2739376 C2.54277455,15.349058 3.56496985,15.0714266 4.51452107,15.0487348 L4.51452107,15.0488871 Z" id="Shape"></path>
        </g>
    </g>
</svg>