<?xml version="1.0" encoding="UTF-8"?>
<svg width="100px" height="100px" viewBox="0 0 100 100" version="1.1" xmlns="http://www.w3.org/2000/svg" xmlns:xlink="http://www.w3.org/1999/xlink">
    <title>assets/brands/porsche</title>
    <g id="assets/brands/porsche" stroke="none" stroke-width="1" fill="none" fill-rule="evenodd">
        <g id="porsche-3" transform="translate(22.000000, 15.000000)" fill="#FFFFFF" fill-rule="nonzero">
            <path d="M43.8627896,60.0674139 C39.6572606,63.9126687 36.036915,65.9851635 28.4100486,70 C21.3106878,66.7595737 16.6769663,63.5654665 12.6586043,60.4195925 C7.10547245,56.0809047 3.1165224,49.0358007 2.77045434,44.7151047 L0,3.59097484 C18.7682716,-1.3050739 38.7313566,-1.19367827 56,3.91980251 L53.1890565,44.6274428 C52.8311472,48.3142173 49.5446466,55.4822011 43.8627896,60.0674139 Z M49.9736029,43.2788283 L52.5102894,6.92748468 C37.6484615,2.17804944 19.846965,2.10761371 3.44501968,6.42830973 L6.03403657,43.2554773 C6.30370992,47.0827404 9.05086387,52.9361791 14.3171336,57.4214804 C17.4863683,60.1221547 23.6957308,64.6545407 28.2817055,66.3920829 C33.565928,63.7094004 38.3688637,60.3748046 42.1767583,57.0815515 C46.8979517,52.7658319 49.6863588,47.400084 49.9736029,43.2788283 Z M41.5671284,56.1214819 C37.9173709,59.2803712 33.0032809,62.8205321 28.2817055,65.0806003 C24.0643353,63.7714145 17.8316724,58.9454186 14.8324159,56.3507808 C9.6012878,51.8183948 7.4748409,47.0754672 7.15283718,42.5894003 L4.61042106,7.43584689 C20.2274107,3.32071601 37.2737455,3.32071601 51.4373256,7.84659438 L48.9247035,42.5308315 C48.5614466,47.1451373 46.4231585,51.553878 41.5671284,56.1214819 Z M5.7777323,8.11915002 L6.28155545,14.1777711 C21.1896021,10.4381698 36.8069737,10.8140822 49.770011,14.7473818 L50.3265465,8.5831071 C36.8940637,4.44998449 20.5864659,4.22681041 5.7777323,8.11915002 Z M42.8505597,10.3677341 L39.4880463,9.80999031 L39.3589392,11.395177 L38.263821,11.2305718 L38.5212712,7.02739623 L39.6404537,7.19200146 L39.5231878,8.80628118 L42.932684,9.35790012 L43.0438383,7.7436204 L44.1859393,7.96066963 L43.8406352,12.1757121 L42.7275642,11.9705297 L42.8505597,10.3677341 L42.8505597,10.3677341 Z M26.6231762,8.94141059 C26.2129366,8.94141059 25.8848213,8.83001496 25.6682423,8.46596942 C25.4810753,8.16661758 25.4810753,7.19200146 25.6682423,6.86929864 C25.8733621,6.49376902 26.2423486,6.38811543 26.5471635,6.38811543 L31.3153396,6.39385747 L31.3264169,7.42704243 L26.8164549,7.42091758 C26.5937643,7.42091758 26.5880347,7.92009253 26.8340257,7.92009253 L30.3894357,7.92009253 C30.8057869,7.92009253 31.1743914,8.17235962 31.2912753,8.50118729 C31.4203824,8.85336593 31.397082,9.65189272 31.2912753,9.98072039 C31.1919622,10.3095481 30.8168641,10.4913794 30.3481826,10.4913794 L25.6449419,10.4913794 L25.6388303,9.43446069 L29.8267886,9.43446069 C29.9551446,9.42431499 30.0541417,9.3169698 30.0541417,9.18793564 C30.0541417,9.05890149 29.9551446,8.95155629 29.8267886,8.94141059 L26.6231762,8.94141059 L26.6231762,8.94141059 Z M23.8645631,9.36134534 C23.8625931,9.25512865 23.8180197,9.15418333 23.7409029,9.08129275 C23.6637862,9.00840217 23.5606259,8.96970991 23.4547054,8.97394884 L20.2912003,9.20286495 L20.3553718,10.7761848 L19.3301548,10.8818384 L19.1131938,6.73148961 L23.8233099,6.37892816 C24.4325578,6.33222621 24.7897031,6.79005845 24.8187331,7.17171291 C24.8538746,7.6238031 24.8714454,8.20489787 24.5196478,8.44568087 C24.8130035,8.6627301 24.8890162,8.98581573 24.8947458,9.43790592 L24.906587,10.5005667 L23.8813699,10.5415266 L23.8645631,9.36134534 L23.8645631,9.36134534 Z M23.1926716,8.01426203 C23.5967996,7.99091106 23.561658,7.36234874 23.1926716,7.39794941 L20.1815739,7.62686553 L20.2167154,8.20221824 L23.1926716,8.01426203 Z M13.3285859,7.4630259 C14.2949791,7.23410978 16.2747481,6.917149 17.3118064,6.84058843 C17.7862176,6.80575337 18.155204,7.05227842 18.2197576,7.42206599 C18.372165,8.27341958 18.4661305,9.15386619 18.3607058,10.3340474 C18.3312939,10.6743592 18.0383201,10.944618 17.6517629,11.0269206 C16.3224948,11.3205304 14.8282142,11.4790108 13.7208728,11.5846644 C13.4397403,11.6141402 12.994741,11.3909662 12.9183463,11.0387875 C12.7250677,10.1813091 12.6547846,8.98390171 12.7132265,8.16202394 C12.7369089,7.85616445 13.0180414,7.53346163 13.3285859,7.4630259 L13.3285859,7.4630259 Z M17.0910257,9.99105607 C17.2254804,9.96196305 17.2843043,9.81496675 17.2961455,9.70931315 C17.3431282,9.38622753 17.3018751,8.54099879 17.2254804,8.25887307 C17.20218,8.14747743 17.1085965,8.07704171 16.897747,8.09465064 C16.3236408,8.1298685 14.8060597,8.34730053 14.0566276,8.51152297 C13.8576193,8.55860772 13.7812246,8.6757454 13.7697654,8.78139899 C13.7346239,9.05739986 13.8163662,9.81458394 13.8870313,10.2375811 C13.9046021,10.3374927 14.0337092,10.4075456 14.1330223,10.4021864 C15.1460162,10.3198837 16.3412115,10.1556613 17.0910257,9.99105607 L17.0910257,9.99105607 Z M33.7026745,7.63796681 C33.4796019,7.63184196 33.3275764,7.76697138 33.3103876,7.88449186 C33.2572933,8.23092846 33.2393405,8.67689381 33.2393405,9.25837137 C33.2393405,9.33454914 33.3684476,9.54585633 33.4796019,9.56346526 C34.4876302,9.70433672 36.4437169,9.88080884 37.5098051,9.95124457 L37.4456336,11.0372563 C36.0453184,10.9729454 34.5808317,10.7497714 33.0640147,10.643735 C32.5663031,10.6085171 32.2030462,10.3386411 32.1850935,9.85745787 C32.1560635,9.06467312 32.2030462,7.86688293 32.3432305,7.16865049 C32.437196,6.73991127 32.8466717,6.51712 33.3100057,6.52860409 C34.7095568,6.58143088 35.8226278,6.70469341 37.656483,6.95121846 L37.5861998,8.03187097 C36.6958194,7.95492759 35.0090241,7.69079361 33.7026745,7.63796681 L33.7026745,7.63796681 Z M10.7796763,7.95301357 C12.1971802,7.61844386 12.4137592,10.142646 11.2304051,10.4362558 L7.92671564,11.2642584 L8.0848527,12.8961471 L7.04817642,13.1725307 L6.67918994,8.92150484 L10.7796763,7.95301357 L10.7796763,7.95301357 Z M10.7624875,9.60633918 C11.102062,9.53016141 11.0554612,8.91997363 10.6918224,8.9961514 L7.71013662,9.71811762 L7.78080174,10.3466799 L10.7624875,9.60633918 L10.7624875,9.60633918 Z M45.8181124,10.997062 L45.7478292,11.6780683 L49.0221067,12.5056881 L48.9342528,13.4569533 L44.5407927,12.4180263 L44.9220024,8.13790736 L49.3444924,9.21243503 L49.2451793,10.2104021 L45.952949,9.41187532 L45.8887775,10.1342243 L49.1573254,10.9323683 L49.075201,11.7775971 L45.8181124,10.997062 L45.8181124,10.997062 Z M14.1303485,23.1782322 C13.6735081,23.7888028 13.2518093,24.7282011 13.052801,25.5263451 C12.9821359,25.7966039 12.9821359,25.8961326 13.0295006,26.0722219 C13.4626587,25.8785237 14.0253057,25.6905675 14.3530391,25.5849139 C14.4821461,25.2978117 14.5520473,24.9686013 14.6635836,24.7044673 C14.8389095,24.2937198 14.9504457,24.1172477 15.1322652,23.8297627 C15.6536591,23.0197518 16.7548889,22.221225 17.5688746,22.238834 C17.2992013,22.4734921 16.7369362,23.0607117 16.5146275,23.4128904 C16.3331901,23.7065002 16.1632119,24.023461 16.0341048,24.3522886 C15.9229505,24.6462812 15.8878089,24.8629477 15.8583969,25.1037307 C16.2800958,24.9804682 16.696065,24.8924235 16.9653564,24.8748146 C17.1471758,24.774903 17.2056177,24.580822 17.3053128,24.3989906 C17.6154754,23.8178958 18.2247232,23.1659825 18.6116625,22.9550582 C18.921825,22.7847109 19.3790474,22.6204884 19.7067807,22.726142 C19.355365,22.990276 18.9863785,23.4128904 18.8225119,23.6655403 C18.6525336,23.9354163 18.3771307,24.458325 18.3889719,24.7044673 C18.676216,24.7282011 19.0860737,24.7044673 19.2503223,24.6635074 L19.2323695,23.8531137 L27.6499212,23.8469888 L27.6441916,12.3050994 C21.0948727,12.3050994 13.9191171,12.9275369 6.3098215,15.0586005 L7.87973289,36.7386412 L19.226258,36.7386412 L19.226258,32.5010134 C18.7694176,32.1607016 16.6487003,31.9137938 15.3427326,32.4244528 C15.0264585,32.5477153 13.9955118,32.9940635 13.5268302,33.3634683 L12.2090214,34.4089029 C12.0799143,34.5145565 12.0684551,34.7434726 12.0684551,34.9191791 C12.0684551,35.3065756 11.6173443,35.6001855 11.3656237,35.5178828 C11.1605039,35.4474471 10.8793714,35.4064872 10.6215392,35.4654388 C10.3461363,35.5236249 10.1005273,35.1768055 10.0768449,34.9781308 C10.0417033,34.7312229 10.2353639,34.4089029 10.2468231,34.3028665 C10.2586643,34.202955 10.1941108,33.8094336 10.5569857,33.5690334 C10.7208523,33.4637626 10.9492725,33.4691219 11.1135212,33.5575493 C11.16127,33.5854232 11.2178564,33.5939159 11.2716582,33.5812831 C11.3304822,33.5575493 11.4886192,33.4170607 11.5294904,33.3818428 C11.5470612,33.1471846 11.5119196,32.7770143 11.535602,32.5718319 C11.5883143,32.1725685 11.6116147,31.9436524 11.7346102,31.5558731 C11.8400349,31.2213034 12.0684551,30.7343781 12.2380514,30.4579945 C12.5428663,29.9592023 13.1460026,29.4776363 13.5974953,29.5185962 C13.4214055,29.7536372 13.3629636,29.8768997 13.2342385,30.1176827 C12.9939771,30.557906 12.7712865,31.2859971 12.6662438,31.7790472 C12.5955787,32.096008 12.5608191,32.3429158 12.5783898,32.6771027 C12.9240759,32.4190936 13.2869508,32.2074036 13.5272122,32.072657 C13.6383665,31.4911794 13.8671687,30.8633827 14.1127777,30.3998084 C14.4057514,29.8416818 15.1964367,29.2368533 15.712483,29.2839381 C15.2262307,29.812206 14.8801626,30.5460391 14.7514375,31.0157382 C14.6987252,31.2033117 14.6341716,31.4211265 14.6639656,31.5382642 C14.8568622,31.4326106 15.2556426,31.326957 15.4485393,31.3093481 C15.5776464,30.9866452 15.7533542,30.5988659 15.9000321,30.3699498 C16.3568725,29.6652097 17.0772746,29.2368533 17.4875142,29.2544622 C17.1651285,29.6889435 16.8897256,30.082082 16.6907174,30.6635596 C16.6318934,30.8335241 16.6028634,31.0157382 16.6028634,31.1037829 C16.854584,31.062823 17.2472529,31.062823 17.4053899,31.062823 C17.6983637,30.798689 17.9088311,30.4813454 18.2606288,30.2114694 C18.5536025,29.9821705 19.0982968,29.6713346 19.2270219,29.6476008 L19.2270219,26.0840888 C19.2270219,26.0075283 18.2957703,25.9374753 17.8328184,25.9960442 C16.6028634,26.1430405 13.5275942,27.1115317 12.2269742,28.0099701 C12.1975622,28.0865307 12.2036738,28.5148871 12.1154379,28.7143274 C12.0394251,28.8961587 11.8461465,29.084115 11.6589794,29.1664176 C11.3251345,29.3134139 10.9381953,28.8670657 10.7682171,28.9317594 C10.5925092,28.9964531 10.2177931,29.1488086 9.81328313,28.8613237 C9.63184568,28.7323191 9.53826216,28.3678908 9.60243372,28.0983976 C9.66125765,27.9043165 9.82512431,27.751961 9.95384941,27.6286984 C10.0711153,27.5111779 9.98899098,27.0590878 10.4103078,26.7892117 C10.7036635,26.6012555 11.1074096,26.7539939 11.4183361,26.9182163 C11.4815371,26.8980628 11.5394699,26.8640645 11.5879324,26.8186876 C11.6288035,26.6950422 11.6933571,26.3195126 11.752181,26.0259028 C11.8224641,25.7085592 11.8461465,25.5033769 11.93973,25.2101499 C12.1742618,24.5000506 12.7361449,23.4783497 13.3224744,22.9439569 C13.7850444,22.5328266 14.5054465,22.2043817 15.0386816,22.2395996 C14.9855873,22.3207538 14.3240091,22.9140982 14.1303485,23.1782322 L14.1303485,23.1782322 Z M15.4844448,16.2288289 C15.929826,15.6067742 17.101339,14.667376 18.0035605,14.7205856 C17.5111966,15.148942 17.0776566,15.6243831 16.7732237,16.1293001 C16.3752072,16.7812134 16.0528215,17.5969663 15.9825384,18.2255287 C16.2812417,18.1137502 16.9840731,17.9143099 17.3882011,17.8262653 C17.7457284,17.0453474 18.21441,16.1825097 18.7946278,15.7185527 C19.2102151,15.3839829 19.8076217,15.096498 20.3645392,15.1608089 C20.2354321,15.343023 20.0245827,15.4838945 19.8664457,15.630508 C19.5795835,15.8827751 19.3805753,16.2234696 19.2220562,16.5699062 C19.1047904,16.8279154 18.9057821,17.6030912 18.8996705,17.6383091 C19.3037986,17.632567 20.0184712,17.679269 20.1708786,17.7263537 C20.6456718,17.1039162 21.68273,16.1997359 22.9241441,16.405301 C22.3851794,16.698528 21.4012155,17.5552408 21.4600394,18.0253228 C22.2682955,18.5482315 23.47495,19.6457273 23.5276624,20.6616861 C22.9772385,20.0863334 22.0692873,19.5167228 21.6120649,19.3582424 C20.5165647,18.9708459 19.2102151,18.9180191 18.1208264,19.1174594 C15.8480837,19.5461986 13.8389026,20.5322988 11.911846,21.6891291 C11.8652452,21.999965 11.694885,22.4696641 11.5543187,22.6285273 C11.4137524,22.7870077 11.202903,22.9393632 10.9744828,22.9745811 C10.6876206,23.0216659 10.3942649,22.9041454 10.1486559,22.7751408 C9.9901369,22.6870961 9.57454965,22.7988746 9.31098788,22.6576203 C9.12955043,22.5634508 8.84803591,22.2993168 8.92443062,21.8828273 C8.98860218,21.5130397 9.35758866,21.2898657 9.41030101,20.937687 C9.48631375,20.4209031 9.8614118,20.1977291 10.0546904,20.162894 C10.2655398,20.1219341 10.4825008,20.1923698 10.6753975,20.2804145 C10.7575218,20.3213744 10.8449938,20.3918101 10.9217704,20.4155439 C10.9977832,20.3918101 11.1089375,20.2980234 11.173491,20.2689304 C11.1910618,20.2099788 11.3847224,19.1358339 11.4897652,18.6661348 C11.5951899,18.1964356 11.7766273,17.7967894 11.9290348,17.3569489 C12.3862571,16.053888 13.7976495,14.7385773 14.9286733,14.809013 C14.8698493,14.8913156 14.5065925,15.1554496 14.0027693,15.7426692 C13.1887836,16.6992936 12.9836638,17.7152524 12.6788489,19.4589195 C13.3056675,19.1653097 13.8503619,18.9540025 14.4187385,18.7484374 C14.5542519,18.2079752 14.7345324,17.6797885 14.9577032,17.1693755 C15.1039991,16.8393995 15.279707,16.5166966 15.4844448,16.2288289 L15.4844448,16.2288289 Z M49.6237151,17.6723785 L28.6885074,17.6903702 L28.7064601,23.866129 L49.1554155,23.8542621 L49.6237151,17.6723785 L49.6237151,17.6723785 Z M31.0922671,49.6482853 C30.8520057,49.7715478 30.5536843,49.69537 30.4306888,49.6421604 C30.2194575,49.5541158 30.0792732,49.3363009 30.0613204,49.0844166 C30.0441316,48.8849763 30.2374102,48.6441933 30.2782814,48.4263785 C30.2954702,48.3383338 30.2022687,47.9046182 30.5708732,47.6810613 C30.6419202,47.6401014 30.8520057,47.5635408 30.9983016,47.5876574 C31.1453614,47.6167504 31.2622453,47.7109199 31.4085412,47.7342709 C31.6075907,47.6635919 31.7982127,47.5710268 31.9769179,47.45827 C32.0941838,47.005797 32.1820377,46.4840367 32.2400977,46.0196968 C31.1919622,46.5422228 29.820677,46.8944014 28.6552757,46.9414862 L28.6613872,63.8318973 C33.5525589,61.3421474 38.9181417,57.2683593 41.2023437,55.0312593 C44.8990839,51.4206626 47.3884057,47.7633639 47.7688514,42.4914028 L48.1141555,37.6891407 L37.0025442,37.6772738 C37.0025442,40.4009163 36.094593,43.2428448 33.4990826,45.2973478 C33.3527867,45.8903095 33.2828855,46.8882766 33.2939628,46.9123931 C33.65149,46.765014 33.9857169,46.6363923 34.2786906,46.5483476 C34.301991,46.5131297 34.7179603,45.6032073 34.9055093,45.3566823 C35.3447789,44.675676 35.936456,44.0938156 36.6564762,43.7064191 C37.1079689,43.477503 37.6583928,43.2661958 38.1446452,43.4484099 C37.5059854,43.7535038 37.0075099,44.3051228 36.7091885,44.6220836 C36.4337856,44.9160762 36.1117818,45.3501746 35.965486,45.7965228 C35.9455184,45.8738138 35.9298335,45.952153 35.9185032,46.0311809 C36.2175885,45.9370114 37.1717585,45.7965228 37.570157,45.7433132 C37.6171397,45.7371883 37.7401352,45.4734371 37.8341007,45.3440498 C37.9506026,45.1855694 38.0212677,45.0860406 38.2084348,44.8743506 C38.6889576,44.3518247 39.5029432,43.7940809 40.2936285,43.9173435 C39.8608525,44.1933443 39.3856774,44.6335676 39.0052317,45.326058 C38.9521373,45.4320944 38.8822362,45.5787079 38.9112662,45.6430188 C39.0285321,45.6667526 39.6087499,45.6548857 39.9601656,45.6962284 C40.3639117,45.4443441 40.7921041,45.2207872 41.2546741,45.1212585 C41.776068,45.003738 42.455981,45.0975247 42.7252723,45.3440498 C42.4089982,45.326058 42.1099129,45.3850097 41.8234327,45.4964053 C41.6591841,45.5614818 41.3310688,45.7138373 41.2080733,45.9247617 C41.5182358,46.0128064 42.0285525,46.3477589 42.3501743,46.6180177 C42.5732468,46.8055911 42.8425382,47.0762328 43.0125165,47.322375 C43.4399449,47.9042354 43.5281808,48.9485216 43.2989966,49.2601232 C43.2348251,49.0775262 43.1645419,48.8960776 43.0648468,48.7257303 C42.859727,48.3796766 42.5373413,48.0033813 42.2619384,47.7978162 C40.9326703,46.782623 39.0174548,46.7294134 37.4528911,47.0463741 C36.1113999,47.322375 33.6919792,47.8276748 32.1106086,48.9542637 C32.1514798,49.153704 32.0284843,49.4886565 31.8474288,49.6172782 C31.6075494,49.794516 31.2683569,49.5541158 31.0922671,49.6482853 L31.0922671,49.6482853 Z M33.7026745,51.5466047 C33.8780004,51.2767287 34.0892318,50.8835901 34.1942745,50.7128601 C34.5636429,50.1198984 35.096878,49.6796751 35.459371,49.508945 C35.9578465,49.268162 36.759609,49.1276734 37.1171363,49.3033799 C36.7248494,49.3975494 36.4261461,49.5793808 36.1511251,49.773079 C35.8699926,49.9675429 35.3184227,50.4720771 35.1782384,50.683767 C35.0201014,50.9184252 34.9150586,51.1293496 34.8738055,51.2415108 C35.3184227,51.1412165 35.8520398,51.0589139 36.1270608,51.0589139 C36.326069,50.806264 36.8535745,50.202201 37.2462434,49.9200753 C37.5625175,49.6965184 38.2363189,49.4737272 38.6576357,49.6555585 C38.2538897,49.7849459 37.5392171,50.3488145 37.2752733,50.75382 C37.2172134,50.8472239 37.164119,50.9475182 37.1522779,50.9999622 C37.3692388,51.017954 37.7790965,51.0589139 38.0021691,51.0880069 C38.0254695,51.0880069 38.6347173,50.7128601 38.9101203,50.6362995 C39.2676475,50.5360051 39.853213,50.4073834 40.2225815,50.8009047 C39.9532901,50.806264 39.7011875,50.8299977 39.5017973,50.9184252 C39.2145532,51.047047 39.0915577,51.1412165 38.9632146,51.3230478 C39.5250977,51.6227825 40.1114271,51.9340012 40.4567313,52.4856202 C40.5797268,52.6793184 40.7668938,53.1375335 40.6618511,53.4365025 C40.4857613,53.2137112 40.2454999,52.9962792 40.0522212,52.8848836 C39.7768183,52.7264032 39.5778101,52.5740476 39.2435832,52.4446603 C38.1954477,52.0515217 36.8249265,51.9458681 35.7290443,52.0924816 C34.3115404,52.274313 32.5716507,52.9790531 31.6816523,53.5892408 C31.7397123,53.8652417 31.6056396,54.1879445 31.4475025,54.2645051 C31.1132756,54.4348524 30.7916539,54.1469846 30.7328299,54.1649764 C30.644976,54.1940694 30.3753027,54.2882389 30.182406,54.2059363 C29.9883634,54.1297585 29.8661319,53.7886811 29.9421446,53.5720147 C30.0002046,53.4074095 30.2355004,53.1727513 30.2355004,53.1727513 C30.1995948,52.8144478 30.4341266,52.5977814 30.7561303,52.5560559 C30.9383317,52.5388298 31.0662929,52.6793184 31.2133527,52.709177 C31.3478074,52.6441006 31.4417729,52.5977814 31.5116741,52.5617979 C31.5937984,52.2685709 31.7167939,51.9688363 31.7989182,51.7223112 C31.9333729,51.3058217 32.1323811,50.9356513 32.3844837,50.5486376 C32.7477406,49.9908938 33.392512,49.4622431 34.1591329,49.4511418 C33.9249831,49.6329732 33.7897645,49.7328847 33.6434686,49.9147161 C33.39213,50.2316769 33.1980874,50.5195446 33.0227615,50.8598564 C32.8646245,51.159591 32.7175646,51.6051736 32.6946462,51.9986949 C33.0262182,51.8382514 33.3623693,51.6874911 33.7026745,51.5466047 L33.7026745,51.5466047 Z M33.5892283,54.7219545 C33.7882366,54.6396519 33.998704,54.5814659 34.2099354,54.6051997 C33.7175715,54.9213948 33.2668426,55.3849691 33.1438472,55.9373537 C33.132006,55.9955397 33.132006,56.1130602 33.1847183,56.1482781 C33.3249026,56.1130602 33.6824299,56.0368824 33.7763954,55.9897977 C33.8344554,55.8665351 33.9807513,55.6728369 34.0808283,55.5434495 C34.432244,55.074516 34.9364491,54.6051997 35.6331689,54.7809062 C35.1759466,54.9864713 34.9123848,55.2735735 34.7133766,55.637619 C34.678235,55.7026955 34.6553166,55.825958 34.7015354,55.825958 C34.8188013,55.825958 35.2641825,55.8079663 35.328354,55.8079663 C35.5334738,55.6261349 36.1312625,55.2793155 36.5415021,55.4087029 C36.3364378,55.5047719 36.148442,55.6338228 35.9849666,55.7907402 C35.9440954,55.8370593 35.8910011,55.896011 35.8799239,55.9664467 C36.2424168,56.1482781 36.5648025,56.3538432 36.8638878,56.6126179 C37.0220249,56.7473645 37.2504451,57.0000144 37.3906294,57.4341129 C37.0392137,57.129019 35.8910011,56.5823765 35.2645644,56.5532835 C34.8543248,56.5360574 34.345536,56.6122351 34.0873219,56.670804 C33.0972464,56.8943609 32.0781409,57.340709 31.2053313,57.8395011 C31.2114428,58.0098484 31.1816489,58.214648 30.9891342,58.3735112 C30.8600271,58.4795475 30.5788946,58.5319915 30.4727059,58.379636 C30.414646,58.2973334 30.0334363,58.3857608 29.952076,58.2801072 C29.952076,58.2801072 29.8519989,58.1277517 29.8401577,57.9451547 C29.8290805,57.7514565 29.9574236,57.6343188 30.0632303,57.5340245 C30.0922603,57.4988066 30.0865307,57.1707445 30.3325216,57.0585833 C30.4845471,56.9881476 30.6369546,57.0122641 30.7660616,57.0945668 C30.819156,57.0647081 30.8600271,57.0356151 30.8951687,57.0122641 C30.9241987,56.6302269 30.9944818,56.2780482 31.1354301,55.8967766 C31.3287087,55.3562589 31.961257,54.6989864 32.5059513,54.7223374 C32.1365828,55.1216007 31.8382615,55.6732197 31.7381844,56.1318175 C31.7091544,56.278431 31.6980772,56.5662988 31.6980772,56.7006626 C31.8284045,56.6206609 31.9654097,56.5521376 32.1075528,56.4958631 C32.1663768,56.3546088 32.335973,56.0024302 32.423827,55.8439498 C32.6453716,55.4320539 33.1438472,54.9041687 33.5892283,54.7219545 L33.5892283,54.7219545 Z M8.44008813,43.1126918 C8.51037126,45.155328 9.34230971,47.6217269 10.4844107,49.3294105 L27.5246339,49.3294105 L27.4894923,46.9464626 C25.2988739,46.9464626 21.9539313,45.4960225 20.6300108,43.1245587 L8.44008813,43.1126918 L8.44008813,43.1126918 Z M20.1548357,37.7848414 C20.1548357,48.6453417 36.0055932,48.6453417 36.0055932,37.8962371 L36.0117048,24.8281126 L20.1548357,24.8223706 L20.1548357,37.7848414 Z M25.2614404,32.5798708 C25.4489895,32.3743056 25.6132381,32.1044296 25.6479977,31.8755135 C25.6774097,31.6875573 25.1502861,31.6994242 24.9570075,31.8169447 C24.8515828,31.8812555 24.7518877,32.0106429 24.6697634,32.1281634 C24.6113214,32.2162081 24.400472,32.2866438 24.2950473,32.187115 C24.183511,32.0814614 24.3829012,31.8992473 24.3767896,31.7878516 C24.3767896,31.5998954 24.0192624,31.8816383 23.8553957,31.8050778 C23.7442414,31.752251 23.7381298,31.5822865 23.8145245,31.4823749 C23.8553957,31.4295482 23.9726616,31.4528991 24.025374,31.3947131 C24.0780863,31.3357614 24.0780863,31.2477168 24.0956571,31.171539 C24.1193395,31.0834944 24.212923,31.0421516 24.2713649,30.9778408 C24.4940555,30.7607915 24.9157544,30.3906212 24.9978787,30.396746 C25.1907753,30.4143549 25.4665603,30.5142665 25.6361565,30.425839 C25.6712981,30.4082301 25.7358516,30.3496612 25.6770277,30.3144434 L25.2201873,30.0143259 C25.2160545,29.9185816 25.2546993,29.8259695 25.325612,29.761676 C25.5364614,29.5737198 25.8645767,29.7031072 26.1399797,29.6617645 C26.3332583,29.6322887 26.5146958,29.5561109 26.655262,29.4213643 C26.6904036,29.5622357 26.6025497,29.7031072 26.6025497,29.8497207 C26.7782575,30.0143259 26.9600769,30.1548146 27.1300552,30.3136778 C27.6338783,30.818212 27.8504573,31.5524279 27.8855989,32.1982163 C27.9150109,32.4975682 27.9150109,32.8026621 27.9150109,33.301837 C27.9971352,33.0905298 28.0498476,32.7793111 28.0674183,32.5090523 C28.1434311,31.7105255 28.0204356,31.0004261 27.5697068,30.3955976 C27.3865137,30.1406207 27.1784592,29.9045444 26.9486177,29.6908575 C26.9723001,29.4561993 27.1713083,29.0569359 27.3588574,29.2039323 C27.4818528,29.297719 27.3004154,29.4385904 27.4291405,29.520893 C27.5700887,29.6085549 27.7748266,29.5970708 27.8626805,29.5790791 C28.0678003,29.5266351 28.2668085,29.4738083 28.4539756,29.4561993 C28.5418295,29.4504573 28.6881254,29.4091146 28.7179193,29.4971593 C28.7412197,29.5557281 28.6770482,29.5970708 28.6121127,29.6204218 C28.5360999,29.6441556 28.418834,29.6265466 28.3546625,29.6908575 C28.3015681,29.7436843 28.2496197,29.8026359 28.2668085,29.8788137 C28.2901089,29.9668584 28.3840744,30.0139431 28.4780399,29.9844673 C28.8313062,29.8865771 29.1949736,29.8313174 29.561317,29.8198621 C29.7553596,29.8198621 29.7133425,29.9611163 29.6201409,30.0135603 C29.5559694,30.0487782 29.4558923,30.078254 29.3917207,30.0843789 C29.0464166,30.124956 28.7882025,30.1486897 28.8290736,30.34813 C28.8581036,30.4832595 29.0754466,30.3538721 29.1216654,30.4537836 C29.1747597,30.5594372 29.0284639,30.6180061 29.040305,30.6888246 C29.0754466,30.9119987 29.502875,30.8649139 29.7018833,30.8178292 C29.8481791,30.7826113 30.0823289,30.6654736 30.1526121,30.7592603 C30.2175476,30.8411801 30.1644533,30.9705675 30.0823289,30.9943013 C29.8710976,31.0528701 29.5086046,31.1585237 29.4085276,31.2756614 C29.3145621,31.3874398 29.4264803,31.616356 29.5376346,31.6282228 C29.7897372,31.6573159 30.0651401,31.6573159 30.2641484,31.7158847 C30.3393972,31.7396185 30.4043327,31.7924453 30.4043327,31.8743651 C30.4043327,31.9624098 30.3164787,31.9918856 30.2461956,32.0152365 C30.110977,32.0561965 29.8829387,32.0561965 29.7599432,32.1094061 C29.7190721,32.127015 29.6369478,32.1564908 29.6487889,32.2031928 C29.6839305,32.2912374 29.8600203,32.2675036 30.0063162,32.2851126 C30.0884405,32.2912374 30.2465776,32.3559311 30.2465776,32.4439758 C30.2465776,32.5381453 30.1644533,32.5672383 30.0181574,32.5557542 C29.7897372,32.5381453 29.5788878,32.5672383 29.4795746,32.608581 C29.4497807,32.6200651 29.2744548,32.6434161 29.2798025,32.7261015 C29.2916436,32.8256302 29.4795746,32.7613193 29.5261754,32.8612309 C29.5670466,32.9554004 29.4387035,33.0078444 29.4268623,33.1253649 C29.4268623,33.1724496 29.4501627,33.1958006 29.4971454,33.2134095 C29.6491709,33.2777204 29.8244968,33.2715956 29.9776682,33.2428854 C30.1358052,33.2134095 30.1938652,33.4250995 30.1529941,33.4484505 C29.9486382,33.5598461 29.4914158,33.4427085 29.3859911,33.5070193 C29.2396952,33.600806 29.6316001,33.8121132 29.6201409,33.859198 C29.6082997,33.9120248 29.561317,33.9648516 29.5261754,33.9767185 C29.3271672,34.0528962 29.069717,33.9058999 28.9234211,33.9885854 C28.8004256,34.0647631 28.852374,34.2584614 28.7763613,34.3583729 C28.6823958,34.4816355 28.4719284,34.4288087 28.3779629,34.4992444 C28.2557313,34.5869062 28.2496197,34.7985962 28.3840744,34.9279836 C28.4898811,35.0275124 28.5891942,35.0975653 28.7236489,35.1626418 C29.3332788,35.4677357 29.965827,35.7728295 30.5575041,35.7314868 C30.861937,35.7142607 31.3604125,35.6970346 31.6354335,35.7674703 C31.9929608,35.8551322 32.3562176,36.1307502 32.5433847,36.2490363 C32.6954102,36.3424402 32.9417831,36.3665568 33.1350618,36.2953555 C33.2752461,36.2490363 33.3692116,36.0844311 33.3401816,35.9431768 C33.2523277,35.4734777 32.4784492,35.327247 32.467372,34.8575479 C32.4555308,34.317413 32.408548,34.0238032 32.2332222,33.6831087 C32.1682866,33.5541041 32.1572094,33.2547522 32.3092349,33.2137923 C32.4322304,33.1843165 32.4734835,33.3546638 32.5724147,33.3137039 C33.0239075,33.1376146 33.0418602,32.4213904 33.5101598,32.2858782 C33.7847988,32.2097004 34.7107028,32.1982163 34.634308,32.0806958 C34.4410294,31.8043122 34.5292653,31.4877342 34.634308,31.3407379 C34.7045912,31.2469512 34.8974878,31.1527817 34.9746465,31.2469512 C35.0796892,31.3702137 34.8157455,31.5168272 34.8336983,31.6990414 C34.8508871,31.8693887 35.097642,32.1982163 34.909711,32.3743056 C34.7985567,32.4799592 33.9608886,32.5155599 33.7145157,32.8910895 C33.5624902,33.1196228 33.5453014,33.301837 33.7263569,33.2842281 C33.8726527,33.2666191 33.9956482,33.0905298 34.1308669,32.9906183 C34.3711283,32.8149117 34.5644069,32.7440932 34.6992436,32.8730978 C34.7695267,32.9374087 34.6755612,33.061054 34.5464541,33.0962719 C34.4414114,33.1314897 34.1839612,33.4074906 34.2538624,33.4779263 C34.3589051,33.589322 34.9448526,33.0790457 35.0915304,33.1843165 C35.1675432,33.2428854 34.8042863,33.6187978 34.8684578,33.7183265 C34.9444706,33.8415891 35.1908435,33.6478908 35.2668563,33.7420603 C35.3780106,33.8829318 35.0735777,34.1589326 34.8974878,34.2821952 C34.7630331,34.369857 34.8153635,34.6990675 34.6220849,34.798979 C34.4058878,34.9046326 34.3058108,35.0918232 34.3294931,35.1216819 C34.3527935,35.168001 34.4055059,35.2039845 34.4876302,35.1507749 C34.7278916,34.9984193 35.0262129,34.8162052 35.1492084,34.8632899 C35.2194916,34.8927657 35.1201784,35.2269526 35.0319425,35.385433 C34.9437066,35.5439134 35.3894698,35.4558688 35.3245343,35.5909982 C35.2783155,35.6912925 35.2485216,35.8436481 35.2783155,35.9841367 C35.3134571,36.1667337 34.7977927,36.206928 34.75081,36.3301905 C34.6984796,36.4714448 34.8039043,36.5066627 34.8558527,36.5127875 C35.1667792,36.5598723 35.125908,36.8469744 35.0029125,36.9702369 C34.8386639,37.1348422 34.5575314,37.199153 34.3111584,37.1578103 C34.099927,37.1225925 33.6262798,37.0353134 33.3451472,36.8236234 C33.2572933,36.7593125 33.1281862,36.8056317 33.1109974,36.8940592 C33.0930447,36.9943535 33.1984694,37.1758021 33.2454521,37.3285404 C33.3103876,37.5574565 33.2744821,37.8453243 33.1984694,38.0688812 C33.0349847,38.5324555 32.5957151,38.919852 32.4727196,39.4775957 C32.4429256,39.6242092 32.4845608,39.8064234 32.5430027,39.9472949 C32.6721098,40.2531544 32.8592768,40.5402565 33.0697443,40.7990313 C33.0995382,40.8813339 33.1407914,40.9747378 33.1056498,41.0509156 C33.058667,41.168436 32.6954102,41.4210859 32.5899855,41.5213803 C32.2557586,41.8322162 31.9685145,42.2376045 31.9043429,42.6778278 C31.8806605,42.8363082 31.541086,42.9947885 31.3126658,43.0590994 C31.1434515,43.1061842 30.9673617,43.1532689 30.8271774,43.2646646 C30.8092247,43.3932863 30.8852374,43.5054476 30.9024262,43.6340693 C30.9322202,43.8576262 30.6510876,43.9690219 30.4337446,44.0394576 C30.3344315,44.0746754 30.2286248,44.1045341 30.1113589,44.1045341 C30.0704878,44.1045341 30.0590286,44.0333327 30.0651401,43.9984977 C30.1293117,43.6934038 30.1873717,43.4468787 30.3046376,43.1946116 C30.3516203,43.1004421 30.4276331,43.0242644 30.5044097,42.9591879 L31.3413139,42.2548306 L31.9979264,41.3096903 C32.0559864,41.2216456 32.0800507,41.1450851 32.0800507,41.0807742 C32.0800507,40.8981772 32.004038,40.7285955 31.8749309,40.6110751 C31.7106823,40.4636959 31.4704209,40.4407278 31.2893654,40.3465583 C31.0552156,40.2290378 30.7148772,39.9009757 30.6678944,39.8768591 C30.5395513,39.8125483 30.4635386,40.0472064 30.4455858,40.181953 C30.4165558,40.3875182 30.4807274,40.5812164 30.4746158,40.7867816 C30.4746158,40.8809511 30.4635386,40.9333951 30.4165558,40.9923467 C29.8661319,41.3093075 29.1804893,41.426828 28.7759793,41.9313622 C28.7056962,42.0194068 28.6415246,42.1139591 28.5475591,42.17827 C28.3191389,42.3367504 27.9386932,42.154919 27.768333,42.4010613 C27.6923203,42.5132225 27.7801742,42.659836 27.7511442,42.7830986 C27.7335734,42.8535343 27.5987368,42.9477038 27.4933121,42.999765 C27.3523638,43.0648415 27.2007203,43.1000593 27.0479309,43.1119262 C26.8779526,43.0296236 26.9833773,42.7888406 27.0418193,42.6184933 C27.1002612,42.4420212 27.1827675,42.2663147 27.3172222,42.1487942 C27.5162305,41.9723221 27.7679511,41.7495308 27.9264701,41.673353 C28.0609248,41.6082765 28.2656626,41.6082765 28.4299113,41.5439657 C28.6029067,41.4908472 28.7668572,41.4117271 28.9161636,41.3093075 C29.1556611,41.156952 29.3787336,40.9689957 29.5135703,40.7106038 C29.6655958,40.4166112 29.648025,40.0242383 29.4547464,39.7715884 C29.2786565,39.5426722 29.0743007,39.3191154 28.9570348,39.061489 C28.8920993,38.9202348 28.939082,38.7265365 29.0391591,38.5971491 C29.0330475,38.5917899 28.9623824,38.5439395 28.9218932,38.5561892 C28.0838432,38.5921727 27.2347159,38.4980032 26.4554898,38.1867845 C26.25037,38.1044818 26.0395206,37.8399651 25.8928428,37.8227389 C25.7583881,37.8047472 25.6762638,37.9750945 25.5414271,38.0103123 C25.3248481,38.069264 25.0433335,38.0340461 24.791613,38.0103123 C24.4986392,37.9812193 23.8893914,37.8518319 23.4501218,37.7113433 C23.3798386,37.7224446 23.3038259,37.7346943 23.2392723,37.7756542 C23.1453068,37.8399651 23.1277361,37.9812193 23.1220065,38.0987398 C23.1101653,38.2572202 23.157148,38.4038337 23.1391953,38.5684389 C23.1334657,38.6507415 23.0864829,38.7387862 23.1101653,38.8153468 C23.1338476,38.9087507 23.2274312,38.9500934 23.2916027,39.009045 C23.3970274,39.1085738 23.4145982,39.3141389 23.4145982,39.4787442 C23.4145982,39.6605755 23.3504267,39.9017413 23.5024521,40.0253867 C23.5964176,40.1007988 23.7251427,40.0016529 23.8424086,40.0253867 C23.9711337,40.0487376 24.0120049,40.207218 24.0181165,40.3304805 C24.024228,40.4709692 23.9069622,40.7699382 23.8305674,40.8472644 C23.7778551,40.8997084 23.6900012,40.8583657 23.6254476,40.8292727 C23.4558514,40.7530949 23.2973323,40.6298324 23.2037488,40.4652272 C23.1628776,40.3947914 23.1628776,40.3067468 23.1216245,40.230569 C23.0570709,40.1011816 22.9398051,40.0257695 22.8229211,39.937342 C22.6823549,39.8313056 22.6533249,39.6376073 22.6296425,39.4676429 C22.6120717,39.3083969 22.6414837,39.1560413 22.6533249,38.9971781 C22.6836826,38.6830299 22.663825,38.3660393 22.5945009,38.0581627 C22.5417886,37.8235045 22.4126815,37.5884636 22.4715055,37.3538054 C22.5009174,37.2424098 22.5769302,37.1363734 22.6827368,37.0892886 C23.2492908,37.0627843 23.8101894,36.9642531 24.3519614,36.7960616 L24.0005457,36.4492422 C23.9126918,36.4492422 23.8424086,36.5372869 23.7545547,36.5372869 C23.6605892,36.5372869 23.5318641,36.4025403 23.4967225,36.3554555 C23.3149031,36.0855795 23.1980192,35.7735952 23.1158949,35.4566344 C23.0398821,35.3333718 22.9462986,35.2104921 22.8053504,35.1515405 C22.7076212,35.1090273 22.6016627,35.0888881 22.4951878,35.0925888 C22.2022141,35.2219762 21.9329227,35.4746261 21.9092404,35.7977117 C21.9035107,35.8800144 21.9501115,35.9500673 21.9386523,36.0323699 C21.9214635,36.1728585 21.8156568,36.2670281 21.7159617,36.3673224 C21.6162666,36.4668512 21.5226831,36.5667627 21.4818119,36.7076342 C21.4462884,36.8251546 21.4875415,36.9484172 21.5398719,37.0598128 C21.5750135,37.1359906 21.6162666,37.2121683 21.5868547,37.294471 C21.5165715,37.4881692 21.0540015,37.6876095 20.9191648,37.6876095 C20.8721821,37.6876095 20.8313109,37.6232986 20.8137401,37.570089 C20.7610278,37.3936169 20.772869,37.2060435 20.8080105,37.030337 C20.9317313,36.8959501 21.0237592,36.7354346 21.0773019,36.5606379 C21.147967,36.3259797 21.1124435,36.0733298 21.2239798,35.855515 C21.5165715,35.3567228 22.2663856,34.3587557 22.4126815,34.2121422 C22.4772351,34.1478314 22.6353721,34.1122307 22.6999257,34.1535734 C23.0161998,34.3591385 23.2037488,34.6114056 23.5081817,34.769886 C23.6724304,34.8521886 23.8771682,34.975834 24.0238461,34.8583135 C24.1701419,34.740793 24.1934423,33.9541331 24.2874078,33.75431 C24.458914,33.4078734 24.9333251,32.9496584 25.2614404,32.5798708 L25.2614404,32.5798708 Z M31.0922671,27.6895641 L30.96316,28.1826142 L30.4944784,28.1826142 L31.1041083,25.8697192 L31.6369614,25.8697192 L32.2232908,28.1650053 L31.7538453,28.1650053 L31.6365794,27.6895641 L31.0922671,27.6895641 L31.0922671,27.6895641 Z M31.5724079,27.2696293 L31.3611765,26.342098 L31.1621682,27.2696293 L31.5724079,27.2696293 Z M29.8611662,26.5346478 C29.8672778,26.3819095 29.8202951,26.1824692 29.6976816,26.1353844 C29.5685745,26.0882997 29.4337378,26.1296424 29.3752959,26.217687 C29.2752188,26.3819095 29.2752188,26.6050835 29.2813304,26.9453953 C29.2813304,27.1509604 29.2874419,27.4384454 29.3283131,27.5739576 C29.4276262,27.8847936 29.69157,27.9027853 29.8199131,27.7087042 C29.8848486,27.6149175 29.8848486,27.4327034 29.878737,27.2684809 L29.6086817,27.2684809 L29.6086817,26.9277864 L30.3061655,26.9277864 L30.3061655,28.1722785 L29.9727025,28.1722785 L29.9727025,28.002314 C29.966591,28.0141809 29.8199131,28.1255766 29.74963,28.1611772 C29.6323641,28.2136212 29.4100555,28.2136212 29.229,28.1374434 C29.0762105,28.0727498 28.9299147,27.8675674 28.8657431,27.6030506 C28.8008076,27.3270498 28.8298376,26.9687463 28.8298376,26.6636524 C28.8359492,26.3405668 29.0059274,25.9826461 29.2400772,25.8475167 C29.4043259,25.75373 29.7087588,25.75373 29.9016554,25.8241657 C30.1365692,25.9064683 30.3180066,26.2467801 30.2828651,26.5346478 L29.8611662,26.5346478 L29.8611662,26.5346478 Z M22.0139011,25.9045543 C22.2014501,26.0220748 22.3007633,26.2395068 22.2663856,26.4917739 L21.8970172,26.4917739 C21.8970172,26.2571157 21.7977041,26.1453373 21.5983139,26.1395953 C21.4753184,26.1338532 21.3229109,26.2747247 21.3229109,26.3803783 C21.3167993,26.6912142 21.5922023,26.7559079 21.7797513,26.8144767 C21.9203176,26.8558194 22.0902958,26.9438641 22.1724201,27.0671266 C22.3244456,27.2903007 22.3423984,27.5249589 22.2194029,27.8304355 C22.1609609,27.977049 21.9382703,28.1531384 21.7507213,28.1944811 C21.5398719,28.2415658 21.2820397,28.2182149 21.0711903,28.0593517 C20.9012121,27.9303471 20.8248174,27.6776972 20.8599589,27.4487811 L21.2759282,27.4487811 C21.2759282,27.5605595 21.2934989,27.6424793 21.3404817,27.7129151 C21.3756233,27.7599998 21.4401768,27.8361776 21.5513311,27.8419196 C21.6407011,27.8484795 21.7283574,27.8148943 21.7905667,27.7502574 C21.8527759,27.6856205 21.8831023,27.5966187 21.8733348,27.5073499 C21.8500344,27.1490464 21.2526278,27.1256955 21.047508,26.8967793 C20.801135,26.6150364 20.8775297,26.1629462 21.076538,25.9807321 C21.3523229,25.7227229 21.7274209,25.7227229 22.0139011,25.9045543 L22.0139011,25.9045543 Z M33.8420949,27.4357658 C33.8482064,27.5238104 33.853936,27.8350292 33.8653952,28.0344695 C33.8715068,28.0930383 33.9303307,28.1695989 33.9303307,28.1753409 L33.4910611,28.1753409 C33.4322372,28.1753409 33.4261256,28.0696873 33.420778,27.9820255 C33.4089368,27.7473673 33.4318552,27.1896235 33.203817,27.1896235 L32.9226845,27.1896235 L32.9226845,28.1699817 L32.4834148,28.1699817 L32.4834148,25.8804377 L33.2741001,25.8804377 C33.6724986,25.8804377 33.8715068,26.1097366 33.8715068,26.4205726 C33.8715068,26.6261377 33.8653952,26.8669207 33.6312454,26.9664495 C33.753859,27.0835871 33.8241421,27.2596765 33.8420949,27.4357658 L33.8420949,27.4357658 Z M33.2401045,26.2107966 L32.9119892,26.2107966 L32.9119892,26.827492 L33.1522506,26.827492 C33.550267,26.827492 33.5445374,26.2107966 33.2401045,26.2107966 L33.2401045,26.2107966 Z M23.3496627,28.1795518 L22.9103931,28.1795518 L22.9103931,26.2479285 L22.4065699,26.2479285 L22.4065699,25.860532 L23.8592155,25.860532 L23.8592155,26.2479285 L23.3496627,26.2479285 L23.3496627,28.1795518 L23.3496627,28.1795518 Z M26.1777951,28.1795518 L26.1777951,26.2479285 L25.6739719,26.2479285 L25.6739719,25.860532 L27.132347,25.860532 L27.132347,26.2479285 L26.6166827,26.2479285 L26.6166827,28.1795518 L26.1777951,28.1795518 Z M27.3302093,25.8609148 L28.7885844,25.8609148 L28.7885844,26.2540533 L28.2729201,26.2540533 L28.2729201,28.1795518 L27.8340325,28.1795518 L27.8340325,26.2540533 L27.3302093,26.2540533 L27.3302093,25.8609148 Z M34.9505822,26.2544361 L34.9505822,28.1856766 L34.5113126,28.1856766 L34.5113126,26.2544361 L34.0078714,26.2544361 L34.0078714,25.8612976 L35.4605169,25.8612976 L35.4605169,26.2544361 L34.9505822,26.2544361 Z M25.008192,27.5142404 L25.008192,25.8647428 L25.4356204,25.8647428 L25.4356204,27.4732805 C25.4356204,28.4360297 24.0414168,28.4360297 24.0414168,27.5027563 L24.0414168,25.8647428 L24.4688453,25.8647428 L24.4688453,27.5203652 C24.4692273,27.8786687 25.008192,27.8786687 25.008192,27.5142404 Z M25.9944477,29.2464234 C26.1235548,29.1350277 26.3046103,28.9826722 26.5154597,28.8475428 C26.7030087,28.7242803 26.4921593,29.006406 26.4803181,29.1235436 C26.4451766,29.4405044 26.2049152,29.4757223 25.9413534,29.4171535 C25.8951346,29.4052866 25.9127054,29.3168591 25.9944477,29.2464234 Z M37.0105657,36.6479169 L48.1989537,36.6417921 L48.6966652,30.4422995 L37.0105657,30.4484244 L37.0105657,36.6479169 L37.0105657,36.6479169 Z M27.5746724,55.9553454 L16.0348687,55.9319944 C18.4130362,58.0749249 23.9195673,62.0844022 27.5395309,63.7105488 L27.5746724,55.9553454 Z M19.2209103,30.2788427 C18.9982197,30.478283 18.5532205,30.9717159 18.4649846,31.1945072 C18.6586452,31.2649429 19.0390909,31.4352902 19.2209103,31.5585527 L19.2209103,30.2788427 L19.2209103,30.2788427 Z" id="Shape"></path>
        </g>
    </g>
</svg>