<?xml version="1.0" encoding="UTF-8"?>
<svg width="100px" height="100px" viewBox="0 0 100 100" version="1.1" xmlns="http://www.w3.org/2000/svg" xmlns:xlink="http://www.w3.org/1999/xlink">
    <title>assets/brands/bmw</title>
    <g id="assets/brands/bmw" stroke="none" stroke-width="1" fill="none" fill-rule="evenodd">
        <g id="bmw" transform="translate(20.000000, 20.000000)" fill="#FFFFFF" fill-rule="nonzero">
            <path d="M30,0 C13.4317843,0 0,13.4321875 0,29.9995823 C0,46.5678125 13.4317843,60 30,60 C46.5682157,60 60,46.5678125 60,29.9995823 C60,13.4330228 46.5682157,0 30,0 Z M58.0488479,29.9995823 C58.0488479,45.4901633 45.4915179,58.048536 30,58.048536 C14.5084821,58.048536 1.95115212,45.4901633 1.95115212,29.9995823 C1.95115212,14.5098367 14.5093109,1.95062863 30,1.95062863 C45.4906891,1.95062863 58.0488479,14.5098367 58.0488479,29.9995823 Z" id="Shape"></path>
            <g id="Group" transform="translate(8.373211, 3.527839)">
                <path d="M36.166768,13.7437868 C36.5737415,14.1815296 37.161408,14.8874316 37.4912969,15.3159851 L43.5660607,11.4598388 C43.2626955,11.0630299 42.7786373,10.4598805 42.4180803,10.0346686 L38.5704813,12.578422 L38.3077306,12.8039764 L38.5033431,12.5182741 L40.2025198,9.12827367 L39.0006631,7.92698718 L35.6089407,9.62532893 L35.3238106,9.82080949 L35.55092,9.55849797 L38.0955407,5.71321165 C37.6479527,5.33227518 37.2177709,4.98308341 36.66989,4.56037759 L32.8131735,10.6294641 C33.3022048,11.0053882 33.9462342,11.5567437 34.3565232,11.9326678 L37.9869592,10.0488701 L38.2190418,9.87761581 L38.0482953,10.1106888 L36.166768,13.7446222 L36.166768,13.7437868 Z M22.3818865,6.05154338 L24.0421064,2.33407126 L24.1473725,2.0040934 L24.1175333,2.34743745 L24.2915953,7.31631928 C24.8742886,7.37145483 25.4760458,7.45248736 26.0686854,7.55106303 L25.7984749,0.192139008 C24.9696082,0.100246439 24.144057,0.0350862537 23.3185058,0 L21.6831519,4.05831001 L21.6251312,4.35988472 L21.5671106,4.0591454 L19.9342432,0 C19.1078632,0.0350862537 18.282312,0.100246439 17.4534453,0.192139008 L17.1840637,7.55189842 C17.7767033,7.45165198 18.3776317,7.3731256 18.9603249,7.31631928 L19.1343869,2.34743745 L19.1045477,2.0040934 L19.2106426,2.33323587 L20.8700337,6.05154338 L22.3818865,6.05154338 Z M8.95673316,11.9167955 C9.91656076,10.9059772 10.4594684,9.73810618 9.50046969,8.62369993 C8.97828369,8.01887975 8.10134276,7.88605321 7.3744267,8.18428637 L7.3023153,8.21268953 L7.32552357,8.14920012 C7.43327623,7.86182699 7.50207217,6.94457207 6.7204509,6.31134873 C6.33917224,6.00225554 5.86174504,5.88780753 5.37768691,5.93709536 C4.47670885,6.02898793 3.78377632,6.64466814 1.89644692,8.74900798 C1.32618666,9.38390209 0.497319998,10.3863665 0,11.0346268 L5.18373211,15.95255 C6.9019727,14.0512092 7.60236503,13.3436364 8.95673316,11.9167955 Z M2.19318119,10.7138382 C3.23589545,9.43653147 4.34574791,8.27784971 4.84886998,7.81922225 C5.00801238,7.6747003 5.18041664,7.53017836 5.39011991,7.47337204 C5.73078411,7.3798087 6.08222357,7.62207092 6.16096591,7.97126269 C6.24053711,8.32212522 6.02005857,8.65544463 5.77471404,8.93028696 C5.22268884,9.55348565 3.19776759,11.6711917 3.19776759,11.6711917 L2.19235232,10.7138382 L2.19318119,10.7138382 Z M4.22307565,12.6402406 C4.22307565,12.6402406 6.19494944,10.5551147 6.83897884,9.88847584 C7.09426977,9.62365816 7.25838537,9.46242847 7.43493397,9.37638361 C7.66204343,9.26527714 7.91070343,9.24272169 8.13366856,9.39058519 C8.3516605,9.5376133 8.45278223,9.78906478 8.39807703,10.0396809 C8.33259656,10.337914 8.08890976,10.6219456 7.88832403,10.8391462 L5.27407858,13.6368573 L4.22307565,12.6402406 L4.22307565,12.6402406 Z" id="Shape"></path>
            </g>
            <path d="M47.7907941,29.9995823 L30,29.9995823 L30,12.2091809 C39.8320164,12.2091809 47.7907941,20.1679128 47.7907941,29.9995823 Z M30,29.9995823 L30,47.7899837 C20.1679836,47.7899837 12.2092059,39.8312518 12.2092059,29.9995823 L30,29.9995823 Z" id="Shape"></path>
        </g>
    </g>
</svg>